PathFileType	4	(X/Y/Z)	CP4_315.1s.trc																												
DataRate	CameraRate	NumFrames	NumMarkers	Units	OrigDataRate	OrigDataStartFrame	OrigNumFrames																								
30	30	25	10	mm	30	8273	9454																								
Frame#	Time	pelvis_center			manubrium			l_acromion			l_humerus_epicondyle			l_radius_styloid			l_center_hand			r_acromion			r_humerus_epicondyle			r_radius_styloid			r_center_hand		
		X1	Y1	Z1	X2	Y2	Z2	X3	Y3	Z3	X4	Y4	Z4	X5	Y5	Z5	X6	Y6	Z6	X7	Y7	Z7	X8	Y8	Z8	X9	Y9	Z9	X10	Y10	Z10
																															
8273	275.7333333	-2324.252258	-147.0280642	-211.0441772	-2435.731644	105.9137682	-219.3060151	-2452.303129	31.29094018	-372.3070082	-2349.058014	-164.1740743	-386.8739356	-2183.804525	-208.8640712	-292.8380791	-2064.041265	-117.0524779	-286.2864512	-2345.936208	23.33353778	-89.73667574	-2185.21015	-118.288382	-90.72836422	-2032.978191	-221.705373	-147.6608677	-1954.021309	-259.7806909	-193.2748211
8274	275.7666667	-2324.032637	-147.0005137	-211.2392012	-2435.27228	106.0613015	-219.074579	-2452.006277	31.70185747	-371.9812703	-2348.982126	-164.0073563	-386.7027734	-2185.387817	-211.0197216	-291.4254602	-2064.008869	-117.0169355	-285.765298	-2345.690734	23.00781723	-89.30167681	-2186.993605	-119.9714961	-89.29112973	-2033.992243	-222.3284865	-147.0082785	-1955.827917	-260.2853545	-192.0009384
8275	275.8	-2324.238901	-146.9731173	-211.6627659	-2435.037249	106.319049	-218.9375715	-2451.708299	31.98568631	-371.6583256	-2348.987711	-164.0616663	-386.6067889	-2186.073258	-211.7422706	-290.8461225	-2064.00915	-116.9903943	-285.0274458	-2345.315211	22.68469468	-88.97658829	-2188.671101	-121.6669656	-87.98825393	-2035.003296	-222.9889556	-146.3579954	-1957.5099	-260.7525472	-191.0312666
8276	275.8333333	-2324.672449	-146.9463541	-211.9721187	-2434.930197	106.6963363	-218.6772749	-2451.288382	32.05448019	-371.3074626	-2349.154902	-163.9224931	-386.7249953	-2186.451949	-211.8205774	-290.9008492	-2064.078609	-117.0098401	-284.0721523	-2345.033505	22.33503293	-88.65166873	-2190.029343	-123.0659931	-86.98377757	-2036.259659	-223.6592669	-145.7444432	-1959.59186	-261.0258682	-190.3263886
8277	275.8666667	-2324.981441	-147.0133311	-212.053362	-2434.715666	106.9530939	-218.2951986	-2450.784437	32.02716314	-371.0710642	-2349.328976	-163.4252468	-386.9248298	-2187.162792	-212.1201392	-291.270505	-2064.101238	-117.0655792	-283.0392997	-2344.952972	22.00844329	-88.29851196	-2191.11921	-124.0986031	-86.25959735	-2037.713243	-224.2580949	-145.0318448	-1962.388172	-261.2169851	-189.3559423
8278	275.9	-2325.056422	-147.2907809	-212.0251778	-2434.366998	107.001329	-218.0408093	-2450.270246	32.00025803	-370.9367646	-2349.025067	-162.8024492	-387.0357579	-2187.779416	-212.6698409	-291.6545863	-2063.768588	-117.0503364	-282.0200048	-2344.975739	21.66298836	-88.06287249	-2192.027235	-124.7736115	-85.65506753	-2039.08878	-224.8595802	-144.0989067	-1963.885844	-262.3179675	-186.9821185
8279	275.9333333	-2325.024531	-147.6954048	-211.9988545	-2434.017391	107.044046	-218.001295	-2449.759753	31.97485963	-370.7025027	-2347.869803	-162.110874	-387.0803643	-2185.955742	-211.3542383	-291.8496518	-2062.825217	-116.7519274	-281.0037413	-2344.999928	21.28288024	-87.93440275	-2192.670191	-125.0949544	-85.020212	-2040.098288	-225.4505262	-142.9203724	-1959.613761	-265.5764882	-182.4781277
8280	275.9666667	-2324.997957	-147.9797627	-211.9946486	-2433.664122	107.288731	-217.9648697	-2449.2509	31.94853628	-370.3475912	-2345.564985	-161.1450687	-387.0676387	-2178.206834	-204.3183418	-292.0400446	-2061.375945	-116.0543636	-279.9801096	-2345.005769	21.02090871	-87.71058603	-2193.034883	-125.1039297	-84.39370563	-2040.481202	-225.5889625	-141.4069906	-1947.485974	-270.1930678	-176.8456306
8281	276	-2324.994084	-148.0512792	-211.9982521	-2433.290569	107.6591477	-217.7098466	-2448.749156	32.00812602	-370.0093679	-2341.026886	-159.5963609	-386.8263139	-2163.862304	-190.5122881	-292.6801642	-2059.73266	-115.0909304	-279.0061058	-2345.005734	20.95442498	-87.36189288	-2193.364028	-124.7930138	-83.75643429	-2040.215127	-224.6562813	-139.3089047	-1931.525841	-273.1506267	-171.982834
8282	276.0333333	-2324.997847	-148.0229192	-212.0004014	-2433.033304	107.9185274	-217.3047423	-2448.261106	32.27012891	-369.6737241	-2332.854001	-157.2866259	-386.1344365	-2146.741224	-173.8964839	-293.715405	-2058.157803	-114.0797014	-278.1805789	-2345.002421	20.98315242	-87.02021671	-2193.805882	-124.1245086	-82.84761052	-2039.601439	-222.527156	-136.4850254	-1917.908943	-272.2861526	-168.5636194
8283	276.0666667	-2325.001493	-147.9984319	-212.0004625	-2432.959136	108.0660368	-217.0199618	-2447.790565	32.66757568	-369.309569	-2321.048685	-154.33287	-384.8919407	-2130.73203	-158.8215543	-294.3714053	-2056.972515	-113.0998628	-277.6193575	-2344.984152	21.00427436	-86.68949683	-2194.109847	-123.1366433	-81.48464127	-2038.649641	-219.4811734	-133.1767279	-1909.149197	-267.671726	-165.8608449
8284	276.1	-2325.004983	-147.9949024	-212.0000425	-2432.961855	108.3176331	-216.9704318	-2447.312959	32.96439516	-369.0642603	-2307.317715	-150.9487398	-383.1892947	-2116.768124	-146.5490373	-294.0981675	-2056.551367	-112.0639421	-277.5227136	-2344.956881	20.98697585	-86.34209302	-2193.82571	-121.8939313	-79.7027735	-2036.832188	-215.5315527	-129.8688591	-1903.793614	-260.1537216	-163.325561
8285	276.1333333	-2325.003342	-147.9983465	-211.9999745	-2432.955802	108.678835	-217.0274324	-2446.747232	33.04834924	-369.0092503	-2293.702592	-147.3310216	-381.2456929	-2104.604373	-136.8040789	-293.2260949	-2056.905783	-110.8443981	-278.0346337	-2344.997512	20.95251894	-86.03907513	-2192.696063	-120.4136054	-77.55988998	-2033.890092	-210.5558696	-127.058864	-1899.666822	-250.4200154	-161.2345873
8286	276.1666667	-2324.983168	-148.0003963	-212.0003295	-2433.003608	108.9280219	-216.9841588	-2446.052873	33.00381318	-368.9588062	-2281.270532	-143.6092044	-379.1478319	-2094.092697	-129.1972216	-292.3817186	-2057.323114	-109.4184292	-278.8606462	-2345.214917	20.99749028	-85.7426701	-2191.073761	-118.6308461	-74.94291778	-2030.452025	-204.6622199	-124.7779789	-1895.902399	-239.0994342	-160.0333214
8287	276.2	-2324.951717	-148.0008799	-212.0005303	-2433.228117	109.0418275	-216.7129708	-2445.354165	32.9504087	-368.7071599	-2270.012781	-139.6367184	-376.766956	-2084.883742	-123.2395968	-291.7151306	-2056.689573	-107.8529865	-279.4066948	-2345.622764	21.24555755	-85.3354325	-2189.920735	-116.4704266	-71.64570971	-2027.641394	-197.920524	-122.3706551	-1892.477138	-226.7406457	-159.9006648
8288	276.2333333	-2324.994592	-148.0009741	-211.9991193	-2433.644917	109.2477903	-216.3254181	-2444.787786	33.00992283	-368.3295612	-2259.743362	-135.2354614	-374.1626106	-2076.68671	-118.6007598	-290.9825155	-2054.555951	-106.2083821	-279.4413011	-2346.188474	21.68845021	-84.76887506	-2189.924169	-113.9669807	-67.81797653	-2026.171084	-190.3737567	-119.4479834	-1889.377151	-213.6576284	-160.7600537
8289	276.2666667	-2325.236169	-147.9994665	-211.9956001	-2434.210422	109.6601474	-216.0652661	-2444.297052	33.28019588	-368.0704515	-2250.597618	-130.6222269	-371.7379226	-2069.53484	-115.0290479	-290.0824157	-2051.404719	-104.4302886	-279.1473715	-2346.945997	22.19349691	-84.07628067	-2190.758402	-111.198479	-63.9440508	-2025.831625	-182.4390203	-116.4942826	-1887.916178	-199.8322312	-161.8549834
8290	276.3	-2325.677573	-147.9945407	-211.9962225	-2434.947334	110.1782306	-215.9363736	-2443.717021	33.66134197	-367.9354562	-2242.717176	-126.1828394	-369.720543	-2063.409608	-112.0380127	-289.1901508	-2047.100471	-101.8862878	-278.5661378	-2347.878518	22.69341611	-83.3757388	-2191.5953	-108.2515998	-60.33462965	-2025.860297	-174.8912764	-114.0830443	-1891.817534	-185.292781	-161.6104803
8291	276.3333333	-2326.183224	-147.9921994	-212.0153571	-2435.858268	110.704737	-215.7222832	-2443.013596	33.91833942	-367.7042607	-2236.021902	-122.1111087	-367.9607092	-2058.068581	-109.176215	-288.5916476	-2040.221173	-96.94053426	-277.7349433	-2348.876644	23.25423536	-82.72239177	-2192.060079	-105.2314769	-57.10700331	-2025.716611	-168.3945321	-112.2251897	-1903.490543	-170.9001297	-159.0525816
8292	276.3666667	-2326.656172	-148.0129746	-212.0482721	-2436.919408	111.2790474	-215.3837127	-2442.383916	34.04208735	-367.3561051	-2230.35798	-118.4467836	-366.3765206	-2053.287271	-106.2593745	-288.6744464	-2030.282507	-88.18036645	-277.1772729	-2349.939411	23.92666597	-82.05121757	-2192.363274	-102.1050631	-54.3424231	-2025.45446	-163.0514723	-110.5934128	-1919.91439	-158.2344448	-155.0422129
8293	276.4	-2327.154117	-148.0642963	-212.0126657	-2438.163203	111.9539844	-215.0578247	-2441.977282	34.26811359	-367.0964037	-2225.684218	-115.141347	-365.0613947	-2049.124481	-103.1734443	-289.3458338	-2019.046654	-76.60064845	-277.1673021	-2351.187043	24.6211823	-81.37560416	-2192.699363	-98.80620609	-52.00718069	-2025.313471	-158.5535906	-109.1026229	-1935.190146	-148.4168044	-151.2863982
8294	276.4333333	-2327.879109	-148.0551023	-211.7773826	-2439.586184	112.6464027	-214.7324402	-2441.662283	34.70665161	-366.9453916	-2221.95874	-112.0587677	-363.9854678	-2046.09391	-99.83039519	-288.146283	-2007.648468	-65.38082119	-276.1853267	-2352.630245	25.27628382	-80.72726395	-2192.960342	-95.62527728	-50.02286408	-2024.948139	-154.4891151	-108.2660388	-1945.60238	-141.1380274	-148.8663927
8295	276.4666667	-2329.070558	-147.7756484	-211.3174714	-2441.169586	113.2987044	-214.293773	-2441.332397	35.2340541	-366.6963183	-2218.968876	-109.1007539	-362.9962802	-2044.892692	-96.40388094	-280.2148967	-1994.394667	-57.52958963	-271.1104681	-2354.152741	25.94780621	-80.05294492	-2193.046067	-93.06499014	-48.38802288	-2023.609712	-150.2584851	-108.6774566	-1950.904737	-134.9689362	-148.0229791
8296	276.5	-2330.856658	-147.0909239	-210.7669035	-2442.949064	113.9711834	-213.769724	-2441.095867	35.68203481	-366.3196707	-2216.557397	-106.355809	-362.0572305	-2045.633138	-93.38422624	-263.450643	-1978.041827	-54.24213481	-260.5571443	-2355.680477	26.62024466	-79.37502842	-2193.027799	-91.28460606	-47.02916035	-2021.425395	-145.524181	-110.1220735	-1952.950396	-129.0730135	-148.2568172
8297	276.5333333	-2333.133153	-146.1062011	-210.3080501	-2444.827697	114.6462593	-213.3100275	-2440.949874	36.00372679	-366.0320757	-2214.756862	-104.0386594	-361.2691449	-2047.611027	-91.20388026	-242.1967591	-1960.876789	-54.52590141	-247.1617064	-2357.184874	27.26931583	-78.72672998	-2192.983855	-89.98002702	-45.71095632	-2019.455644	-140.7790205	-111.8038089	-1953.936365	-123.9906909	-148.6282826
